<mxfile host="Electron" modified="2023-05-19T20:17:44.629Z" agent="Mozilla/5.0 (X11; Linux x86_64) AppleWebKit/537.36 (KHTML, like Gecko) draw.io/21.1.2 Chrome/106.0.5249.199 Electron/21.4.3 Safari/537.36" etag="-_Wb-hze6H80VoktmCjh" version="21.1.2" type="device">
  <diagram name="Página-1" id="QFQ6mHWDKMVyzCnVMrwN">
    <mxGraphModel dx="2074" dy="679" grid="1" gridSize="10" guides="1" tooltips="1" connect="1" arrows="1" fold="1" page="1" pageScale="1" pageWidth="827" pageHeight="1169" math="0" shadow="0">
      <root>
        <mxCell id="0" />
        <mxCell id="1" parent="0" />
        <mxCell id="o5czfHZH7X3JScQm45Zd-1" value="Uma biblioteca deseja fazer o registro de seus empréstimos de livros. Quando umusuário pega um livro emprestado, deve ser registrada a data de empréstimo. Por padrão, o prazo de empréstimo é de dois dias, considerando atraso se o livro for devolvido depois deste tempo. Cada livro possui um título, gênero, editora e número de páginas. Um livro pode participar de uma coleção. Cada livro também possui um valor diário de multa, caso o usuário devolva o livro com atraso em relação à data prevista de devolução." style="text;whiteSpace=wrap;html=1;align=center;" vertex="1" parent="1">
          <mxGeometry x="210" y="20" width="760" height="70" as="geometry" />
        </mxCell>
        <mxCell id="o5czfHZH7X3JScQm45Zd-35" style="edgeStyle=orthogonalEdgeStyle;rounded=0;orthogonalLoop=1;jettySize=auto;html=1;endArrow=diamond;endFill=1;" edge="1" parent="1" source="o5czfHZH7X3JScQm45Zd-10" target="o5czfHZH7X3JScQm45Zd-15">
          <mxGeometry relative="1" as="geometry">
            <Array as="points">
              <mxPoint x="660" y="170" />
            </Array>
          </mxGeometry>
        </mxCell>
        <mxCell id="o5czfHZH7X3JScQm45Zd-38" value="1" style="edgeLabel;html=1;align=center;verticalAlign=middle;resizable=0;points=[];" vertex="1" connectable="0" parent="o5czfHZH7X3JScQm45Zd-35">
          <mxGeometry x="0.8026" y="1" relative="1" as="geometry">
            <mxPoint x="12" y="-14" as="offset" />
          </mxGeometry>
        </mxCell>
        <mxCell id="o5czfHZH7X3JScQm45Zd-39" value="- editora" style="edgeLabel;html=1;align=center;verticalAlign=middle;resizable=0;points=[];" vertex="1" connectable="0" parent="o5czfHZH7X3JScQm45Zd-35">
          <mxGeometry x="0.8581" y="-1" relative="1" as="geometry">
            <mxPoint x="-9" y="9" as="offset" />
          </mxGeometry>
        </mxCell>
        <mxCell id="o5czfHZH7X3JScQm45Zd-40" value="*" style="edgeLabel;html=1;align=center;verticalAlign=middle;resizable=0;points=[];" vertex="1" connectable="0" parent="o5czfHZH7X3JScQm45Zd-35">
          <mxGeometry x="-0.9147" relative="1" as="geometry">
            <mxPoint x="-10" as="offset" />
          </mxGeometry>
        </mxCell>
        <mxCell id="o5czfHZH7X3JScQm45Zd-41" value="- livros" style="edgeLabel;html=1;align=center;verticalAlign=middle;resizable=0;points=[];" vertex="1" connectable="0" parent="o5czfHZH7X3JScQm45Zd-35">
          <mxGeometry x="-0.9067" y="1" relative="1" as="geometry">
            <mxPoint x="21" as="offset" />
          </mxGeometry>
        </mxCell>
        <mxCell id="o5czfHZH7X3JScQm45Zd-37" style="edgeStyle=orthogonalEdgeStyle;rounded=0;orthogonalLoop=1;jettySize=auto;html=1;endArrow=diamond;endFill=0;" edge="1" parent="1" source="o5czfHZH7X3JScQm45Zd-10" target="o5czfHZH7X3JScQm45Zd-27">
          <mxGeometry relative="1" as="geometry">
            <Array as="points">
              <mxPoint x="660" y="430" />
            </Array>
          </mxGeometry>
        </mxCell>
        <mxCell id="o5czfHZH7X3JScQm45Zd-46" value="1..*" style="edgeLabel;html=1;align=center;verticalAlign=middle;resizable=0;points=[];" vertex="1" connectable="0" parent="o5czfHZH7X3JScQm45Zd-37">
          <mxGeometry x="-0.9355" relative="1" as="geometry">
            <mxPoint x="10" as="offset" />
          </mxGeometry>
        </mxCell>
        <mxCell id="o5czfHZH7X3JScQm45Zd-47" value="- livros" style="edgeLabel;html=1;align=center;verticalAlign=middle;resizable=0;points=[];" vertex="1" connectable="0" parent="o5czfHZH7X3JScQm45Zd-37">
          <mxGeometry x="-0.953" y="-1" relative="1" as="geometry">
            <mxPoint x="-20" y="3" as="offset" />
          </mxGeometry>
        </mxCell>
        <mxCell id="o5czfHZH7X3JScQm45Zd-48" value="0..1" style="edgeLabel;html=1;align=center;verticalAlign=middle;resizable=0;points=[];" vertex="1" connectable="0" parent="o5czfHZH7X3JScQm45Zd-37">
          <mxGeometry x="0.8685" y="-1" relative="1" as="geometry">
            <mxPoint x="8" y="-11" as="offset" />
          </mxGeometry>
        </mxCell>
        <mxCell id="o5czfHZH7X3JScQm45Zd-49" value="- colecao" style="edgeLabel;html=1;align=center;verticalAlign=middle;resizable=0;points=[];" vertex="1" connectable="0" parent="o5czfHZH7X3JScQm45Zd-37">
          <mxGeometry x="0.8859" y="-1" relative="1" as="geometry">
            <mxPoint x="-13" y="11" as="offset" />
          </mxGeometry>
        </mxCell>
        <mxCell id="o5czfHZH7X3JScQm45Zd-10" value="Livro" style="swimlane;fontStyle=0;childLayout=stackLayout;horizontal=1;startSize=26;fillColor=none;horizontalStack=0;resizeParent=1;resizeParentMax=0;resizeLast=0;collapsible=1;marginBottom=0;whiteSpace=wrap;html=1;" vertex="1" parent="1">
          <mxGeometry x="580" y="228" width="160" height="104" as="geometry" />
        </mxCell>
        <mxCell id="o5czfHZH7X3JScQm45Zd-11" value="- &amp;lt;&amp;lt;oid&amp;gt;&amp;gt; id: UUID" style="text;strokeColor=none;fillColor=none;align=left;verticalAlign=top;spacingLeft=4;spacingRight=4;overflow=hidden;rotatable=0;points=[[0,0.5],[1,0.5]];portConstraint=eastwest;whiteSpace=wrap;html=1;" vertex="1" parent="o5czfHZH7X3JScQm45Zd-10">
          <mxGeometry y="26" width="160" height="26" as="geometry" />
        </mxCell>
        <mxCell id="o5czfHZH7X3JScQm45Zd-14" value="- titulo: String" style="text;strokeColor=none;fillColor=none;align=left;verticalAlign=top;spacingLeft=4;spacingRight=4;overflow=hidden;rotatable=0;points=[[0,0.5],[1,0.5]];portConstraint=eastwest;whiteSpace=wrap;html=1;" vertex="1" parent="o5czfHZH7X3JScQm45Zd-10">
          <mxGeometry y="52" width="160" height="26" as="geometry" />
        </mxCell>
        <mxCell id="o5czfHZH7X3JScQm45Zd-22" value="- multaAtrasoDiario: Double" style="text;strokeColor=none;fillColor=none;align=left;verticalAlign=top;spacingLeft=4;spacingRight=4;overflow=hidden;rotatable=0;points=[[0,0.5],[1,0.5]];portConstraint=eastwest;whiteSpace=wrap;html=1;" vertex="1" parent="o5czfHZH7X3JScQm45Zd-10">
          <mxGeometry y="78" width="160" height="26" as="geometry" />
        </mxCell>
        <mxCell id="o5czfHZH7X3JScQm45Zd-15" value="Editora" style="swimlane;fontStyle=0;childLayout=stackLayout;horizontal=1;startSize=26;fillColor=none;horizontalStack=0;resizeParent=1;resizeParentMax=0;resizeLast=0;collapsible=1;marginBottom=0;whiteSpace=wrap;html=1;" vertex="1" parent="1">
          <mxGeometry x="890" y="130" width="140" height="78" as="geometry" />
        </mxCell>
        <mxCell id="o5czfHZH7X3JScQm45Zd-16" value="- &amp;lt;&amp;lt;oid&amp;gt;&amp;gt; id: UUID" style="text;strokeColor=none;fillColor=none;align=left;verticalAlign=top;spacingLeft=4;spacingRight=4;overflow=hidden;rotatable=0;points=[[0,0.5],[1,0.5]];portConstraint=eastwest;whiteSpace=wrap;html=1;" vertex="1" parent="o5czfHZH7X3JScQm45Zd-15">
          <mxGeometry y="26" width="140" height="26" as="geometry" />
        </mxCell>
        <mxCell id="o5czfHZH7X3JScQm45Zd-17" value="- nome: String" style="text;strokeColor=none;fillColor=none;align=left;verticalAlign=top;spacingLeft=4;spacingRight=4;overflow=hidden;rotatable=0;points=[[0,0.5],[1,0.5]];portConstraint=eastwest;whiteSpace=wrap;html=1;" vertex="1" parent="o5czfHZH7X3JScQm45Zd-15">
          <mxGeometry y="52" width="140" height="26" as="geometry" />
        </mxCell>
        <mxCell id="o5czfHZH7X3JScQm45Zd-19" value="Gênero" style="swimlane;fontStyle=0;childLayout=stackLayout;horizontal=1;startSize=26;fillColor=none;horizontalStack=0;resizeParent=1;resizeParentMax=0;resizeLast=0;collapsible=1;marginBottom=0;whiteSpace=wrap;html=1;" vertex="1" parent="1">
          <mxGeometry x="890" y="254" width="140" height="78" as="geometry" />
        </mxCell>
        <mxCell id="o5czfHZH7X3JScQm45Zd-20" value="- &amp;lt;&amp;lt;oid&amp;gt;&amp;gt; id: UUID" style="text;strokeColor=none;fillColor=none;align=left;verticalAlign=top;spacingLeft=4;spacingRight=4;overflow=hidden;rotatable=0;points=[[0,0.5],[1,0.5]];portConstraint=eastwest;whiteSpace=wrap;html=1;" vertex="1" parent="o5czfHZH7X3JScQm45Zd-19">
          <mxGeometry y="26" width="140" height="26" as="geometry" />
        </mxCell>
        <mxCell id="o5czfHZH7X3JScQm45Zd-21" value="- nome: String" style="text;strokeColor=none;fillColor=none;align=left;verticalAlign=top;spacingLeft=4;spacingRight=4;overflow=hidden;rotatable=0;points=[[0,0.5],[1,0.5]];portConstraint=eastwest;whiteSpace=wrap;html=1;" vertex="1" parent="o5czfHZH7X3JScQm45Zd-19">
          <mxGeometry y="52" width="140" height="26" as="geometry" />
        </mxCell>
        <mxCell id="o5czfHZH7X3JScQm45Zd-27" value="Colecao" style="swimlane;fontStyle=0;childLayout=stackLayout;horizontal=1;startSize=26;fillColor=none;horizontalStack=0;resizeParent=1;resizeParentMax=0;resizeLast=0;collapsible=1;marginBottom=0;whiteSpace=wrap;html=1;" vertex="1" parent="1">
          <mxGeometry x="890" y="390" width="140" height="78" as="geometry" />
        </mxCell>
        <mxCell id="o5czfHZH7X3JScQm45Zd-31" value="- &amp;lt;&amp;lt;oid&amp;gt;&amp;gt; id: UUID" style="text;strokeColor=none;fillColor=none;align=left;verticalAlign=top;spacingLeft=4;spacingRight=4;overflow=hidden;rotatable=0;points=[[0,0.5],[1,0.5]];portConstraint=eastwest;whiteSpace=wrap;html=1;" vertex="1" parent="o5czfHZH7X3JScQm45Zd-27">
          <mxGeometry y="26" width="140" height="26" as="geometry" />
        </mxCell>
        <mxCell id="o5czfHZH7X3JScQm45Zd-30" value="- nome: String" style="text;strokeColor=none;fillColor=none;align=left;verticalAlign=top;spacingLeft=4;spacingRight=4;overflow=hidden;rotatable=0;points=[[0,0.5],[1,0.5]];portConstraint=eastwest;whiteSpace=wrap;html=1;" vertex="1" parent="o5czfHZH7X3JScQm45Zd-27">
          <mxGeometry y="52" width="140" height="26" as="geometry" />
        </mxCell>
        <mxCell id="o5czfHZH7X3JScQm45Zd-36" style="edgeStyle=orthogonalEdgeStyle;rounded=0;orthogonalLoop=1;jettySize=auto;html=1;endArrow=none;endFill=0;" edge="1" parent="1" source="o5czfHZH7X3JScQm45Zd-14" target="o5czfHZH7X3JScQm45Zd-19">
          <mxGeometry relative="1" as="geometry" />
        </mxCell>
        <mxCell id="o5czfHZH7X3JScQm45Zd-42" value="1..*" style="edgeLabel;html=1;align=center;verticalAlign=middle;resizable=0;points=[];" vertex="1" connectable="0" parent="o5czfHZH7X3JScQm45Zd-36">
          <mxGeometry x="0.659" y="-3" relative="1" as="geometry">
            <mxPoint x="5" y="-15" as="offset" />
          </mxGeometry>
        </mxCell>
        <mxCell id="o5czfHZH7X3JScQm45Zd-43" value="- generos" style="edgeLabel;html=1;align=center;verticalAlign=middle;resizable=0;points=[];" vertex="1" connectable="0" parent="o5czfHZH7X3JScQm45Zd-36">
          <mxGeometry x="0.7886" relative="1" as="geometry">
            <mxPoint x="-12" y="10" as="offset" />
          </mxGeometry>
        </mxCell>
        <mxCell id="o5czfHZH7X3JScQm45Zd-44" value="*" style="edgeLabel;html=1;align=center;verticalAlign=middle;resizable=0;points=[];" vertex="1" connectable="0" parent="o5czfHZH7X3JScQm45Zd-36">
          <mxGeometry x="-0.8648" y="-1" relative="1" as="geometry">
            <mxPoint x="-4" y="-11" as="offset" />
          </mxGeometry>
        </mxCell>
        <mxCell id="o5czfHZH7X3JScQm45Zd-45" value="- livros" style="edgeLabel;html=1;align=center;verticalAlign=middle;resizable=0;points=[];" vertex="1" connectable="0" parent="o5czfHZH7X3JScQm45Zd-36">
          <mxGeometry x="-0.8648" relative="1" as="geometry">
            <mxPoint x="8" y="10" as="offset" />
          </mxGeometry>
        </mxCell>
        <mxCell id="o5czfHZH7X3JScQm45Zd-116" style="edgeStyle=orthogonalEdgeStyle;rounded=0;orthogonalLoop=1;jettySize=auto;html=1;endArrow=none;endFill=0;" edge="1" parent="1" source="o5czfHZH7X3JScQm45Zd-50" target="o5czfHZH7X3JScQm45Zd-111">
          <mxGeometry relative="1" as="geometry" />
        </mxCell>
        <mxCell id="o5czfHZH7X3JScQm45Zd-117" value="- usuario" style="edgeLabel;html=1;align=center;verticalAlign=middle;resizable=0;points=[];" vertex="1" connectable="0" parent="o5czfHZH7X3JScQm45Zd-116">
          <mxGeometry x="-0.7627" y="-2" relative="1" as="geometry">
            <mxPoint x="10" y="7" as="offset" />
          </mxGeometry>
        </mxCell>
        <mxCell id="o5czfHZH7X3JScQm45Zd-118" value="1" style="edgeLabel;html=1;align=center;verticalAlign=middle;resizable=0;points=[];" vertex="1" connectable="0" parent="o5czfHZH7X3JScQm45Zd-116">
          <mxGeometry x="-0.7039" y="-3" relative="1" as="geometry">
            <mxPoint x="-10" y="-13" as="offset" />
          </mxGeometry>
        </mxCell>
        <mxCell id="o5czfHZH7X3JScQm45Zd-119" value="*" style="edgeLabel;html=1;align=center;verticalAlign=middle;resizable=0;points=[];" vertex="1" connectable="0" parent="o5czfHZH7X3JScQm45Zd-116">
          <mxGeometry x="0.7471" y="-2" relative="1" as="geometry">
            <mxPoint x="14" y="-12" as="offset" />
          </mxGeometry>
        </mxCell>
        <mxCell id="o5czfHZH7X3JScQm45Zd-120" value="- emprestimos" style="edgeLabel;html=1;align=center;verticalAlign=middle;resizable=0;points=[];" vertex="1" connectable="0" parent="o5czfHZH7X3JScQm45Zd-116">
          <mxGeometry x="0.8167" relative="1" as="geometry">
            <mxPoint x="-23" y="8" as="offset" />
          </mxGeometry>
        </mxCell>
        <mxCell id="o5czfHZH7X3JScQm45Zd-50" value="Usuario" style="swimlane;fontStyle=0;childLayout=stackLayout;horizontal=1;startSize=26;fillColor=none;horizontalStack=0;resizeParent=1;resizeParentMax=0;resizeLast=0;collapsible=1;marginBottom=0;whiteSpace=wrap;html=1;" vertex="1" parent="1">
          <mxGeometry x="-60" y="241" width="140" height="78" as="geometry" />
        </mxCell>
        <mxCell id="o5czfHZH7X3JScQm45Zd-51" value="- &amp;lt;&amp;lt;oid&amp;gt;&amp;gt; id: UUID" style="text;strokeColor=none;fillColor=none;align=left;verticalAlign=top;spacingLeft=4;spacingRight=4;overflow=hidden;rotatable=0;points=[[0,0.5],[1,0.5]];portConstraint=eastwest;whiteSpace=wrap;html=1;" vertex="1" parent="o5czfHZH7X3JScQm45Zd-50">
          <mxGeometry y="26" width="140" height="26" as="geometry" />
        </mxCell>
        <mxCell id="o5czfHZH7X3JScQm45Zd-52" value="- nome: String" style="text;strokeColor=none;fillColor=none;align=left;verticalAlign=top;spacingLeft=4;spacingRight=4;overflow=hidden;rotatable=0;points=[[0,0.5],[1,0.5]];portConstraint=eastwest;whiteSpace=wrap;html=1;" vertex="1" parent="o5czfHZH7X3JScQm45Zd-50">
          <mxGeometry y="52" width="140" height="26" as="geometry" />
        </mxCell>
        <mxCell id="o5czfHZH7X3JScQm45Zd-65" value="Instância mínima: 3 livros, 1 usuário, 2 empréstimos. Pelo menos um livro participando de uma coleção." style="text;whiteSpace=wrap;html=1;" vertex="1" parent="1">
          <mxGeometry x="250" y="535" width="560" height="50" as="geometry" />
        </mxCell>
        <mxCell id="o5czfHZH7X3JScQm45Zd-101" style="edgeStyle=orthogonalEdgeStyle;rounded=0;orthogonalLoop=1;jettySize=auto;html=1;entryX=0;entryY=0.5;entryDx=0;entryDy=0;endArrow=none;endFill=0;" edge="1" parent="1" source="o5czfHZH7X3JScQm45Zd-71" target="o5czfHZH7X3JScQm45Zd-96">
          <mxGeometry relative="1" as="geometry">
            <Array as="points">
              <mxPoint y="870" />
            </Array>
          </mxGeometry>
        </mxCell>
        <mxCell id="o5czfHZH7X3JScQm45Zd-102" style="edgeStyle=orthogonalEdgeStyle;rounded=0;orthogonalLoop=1;jettySize=auto;html=1;endArrow=none;endFill=0;" edge="1" parent="1" source="o5czfHZH7X3JScQm45Zd-71" target="o5czfHZH7X3JScQm45Zd-100">
          <mxGeometry relative="1" as="geometry" />
        </mxCell>
        <mxCell id="o5czfHZH7X3JScQm45Zd-103" style="edgeStyle=orthogonalEdgeStyle;rounded=0;orthogonalLoop=1;jettySize=auto;html=1;entryX=0;entryY=0.5;entryDx=0;entryDy=0;endArrow=none;endFill=0;" edge="1" parent="1" source="o5czfHZH7X3JScQm45Zd-71" target="o5czfHZH7X3JScQm45Zd-99">
          <mxGeometry relative="1" as="geometry">
            <Array as="points">
              <mxPoint y="1180" />
            </Array>
          </mxGeometry>
        </mxCell>
        <mxCell id="o5czfHZH7X3JScQm45Zd-71" value="&lt;p style=&quot;margin:0px;margin-top:4px;text-align:center;text-decoration:underline;&quot;&gt;&lt;b&gt;u1: Usuario&lt;/b&gt;&lt;/p&gt;&lt;hr&gt;&lt;p style=&quot;margin:0px;margin-left:8px;&quot;&gt;id = &quot;5e061b72-591b-4955-bb83-3444a3d72011&quot;&lt;br&gt;nome = &quot;Joaquim&quot;&lt;/p&gt;" style="verticalAlign=top;align=left;overflow=fill;fontSize=12;fontFamily=Helvetica;html=1;whiteSpace=wrap;" vertex="1" parent="1">
          <mxGeometry x="-160" y="955" width="280" height="70" as="geometry" />
        </mxCell>
        <mxCell id="o5czfHZH7X3JScQm45Zd-84" style="edgeStyle=orthogonalEdgeStyle;rounded=0;orthogonalLoop=1;jettySize=auto;html=1;endArrow=none;endFill=0;" edge="1" parent="1" source="o5czfHZH7X3JScQm45Zd-72" target="o5czfHZH7X3JScQm45Zd-77">
          <mxGeometry relative="1" as="geometry" />
        </mxCell>
        <mxCell id="o5czfHZH7X3JScQm45Zd-86" style="edgeStyle=orthogonalEdgeStyle;rounded=0;orthogonalLoop=1;jettySize=auto;html=1;entryX=0;entryY=0.25;entryDx=0;entryDy=0;endArrow=none;endFill=0;" edge="1" parent="1" source="o5czfHZH7X3JScQm45Zd-72" target="o5czfHZH7X3JScQm45Zd-76">
          <mxGeometry relative="1" as="geometry" />
        </mxCell>
        <mxCell id="o5czfHZH7X3JScQm45Zd-93" style="edgeStyle=orthogonalEdgeStyle;rounded=0;orthogonalLoop=1;jettySize=auto;html=1;exitX=0.75;exitY=0;exitDx=0;exitDy=0;endArrow=none;endFill=0;" edge="1" parent="1" source="o5czfHZH7X3JScQm45Zd-72" target="o5czfHZH7X3JScQm45Zd-92">
          <mxGeometry relative="1" as="geometry">
            <Array as="points">
              <mxPoint x="780" y="800" />
              <mxPoint x="930" y="800" />
              <mxPoint x="930" y="710" />
            </Array>
          </mxGeometry>
        </mxCell>
        <mxCell id="o5czfHZH7X3JScQm45Zd-72" value="&lt;p style=&quot;margin:0px;margin-top:4px;text-align:center;text-decoration:underline;&quot;&gt;&lt;b&gt;l1: Livro&lt;/b&gt;&lt;/p&gt;&lt;hr&gt;&lt;p style=&quot;margin:0px;margin-left:8px;&quot;&gt;id = &quot;5e061b72-591b-4955-ff12-3444a3d72011&quot;&lt;br&gt;nome = &quot;O Senhor dos Aneis: As Duas Torres&quot;&lt;/p&gt;&lt;p style=&quot;margin:0px;margin-left:8px;&quot;&gt;multaAtrasoDiario = 5.00&lt;/p&gt;" style="verticalAlign=top;align=left;overflow=fill;fontSize=12;fontFamily=Helvetica;html=1;whiteSpace=wrap;" vertex="1" parent="1">
          <mxGeometry x="570" y="830" width="280" height="80" as="geometry" />
        </mxCell>
        <mxCell id="o5czfHZH7X3JScQm45Zd-82" style="edgeStyle=orthogonalEdgeStyle;rounded=0;orthogonalLoop=1;jettySize=auto;html=1;endArrow=none;endFill=0;" edge="1" parent="1" source="o5czfHZH7X3JScQm45Zd-73" target="o5czfHZH7X3JScQm45Zd-75">
          <mxGeometry relative="1" as="geometry">
            <Array as="points">
              <mxPoint x="963" y="985" />
              <mxPoint x="963" y="1035" />
            </Array>
          </mxGeometry>
        </mxCell>
        <mxCell id="o5czfHZH7X3JScQm45Zd-83" style="edgeStyle=orthogonalEdgeStyle;rounded=0;orthogonalLoop=1;jettySize=auto;html=1;endArrow=none;endFill=0;" edge="1" parent="1" source="o5czfHZH7X3JScQm45Zd-73" target="o5czfHZH7X3JScQm45Zd-76">
          <mxGeometry relative="1" as="geometry">
            <Array as="points">
              <mxPoint x="963" y="985" />
              <mxPoint x="963" y="950" />
            </Array>
          </mxGeometry>
        </mxCell>
        <mxCell id="o5czfHZH7X3JScQm45Zd-73" value="&lt;p style=&quot;margin:0px;margin-top:4px;text-align:center;text-decoration:underline;&quot;&gt;&lt;b&gt;l2: Livro&lt;/b&gt;&lt;/p&gt;&lt;hr&gt;&lt;p style=&quot;margin:0px;margin-left:8px;&quot;&gt;id = &quot;5e061b72-591b-1234-ff12-3444a3d72011&quot;&lt;br&gt;nome = &quot;Eu, Robô&quot;&lt;/p&gt;&lt;p style=&quot;margin:0px;margin-left:8px;&quot;&gt;multaAtrasoDiario = 5.00&lt;br&gt;&lt;/p&gt;" style="verticalAlign=top;align=left;overflow=fill;fontSize=12;fontFamily=Helvetica;html=1;whiteSpace=wrap;" vertex="1" parent="1">
          <mxGeometry x="570" y="950" width="280" height="80" as="geometry" />
        </mxCell>
        <mxCell id="o5czfHZH7X3JScQm45Zd-80" style="edgeStyle=orthogonalEdgeStyle;rounded=0;orthogonalLoop=1;jettySize=auto;html=1;entryX=0;entryY=0.5;entryDx=0;entryDy=0;endArrow=none;endFill=0;" edge="1" parent="1" source="o5czfHZH7X3JScQm45Zd-74" target="o5czfHZH7X3JScQm45Zd-79">
          <mxGeometry relative="1" as="geometry">
            <Array as="points">
              <mxPoint x="963" y="1175" />
              <mxPoint x="963" y="1235" />
            </Array>
          </mxGeometry>
        </mxCell>
        <mxCell id="o5czfHZH7X3JScQm45Zd-81" style="edgeStyle=orthogonalEdgeStyle;rounded=0;orthogonalLoop=1;jettySize=auto;html=1;endArrow=none;endFill=0;" edge="1" parent="1" source="o5czfHZH7X3JScQm45Zd-74" target="o5czfHZH7X3JScQm45Zd-78">
          <mxGeometry relative="1" as="geometry">
            <Array as="points">
              <mxPoint x="963" y="1175" />
              <mxPoint x="963" y="1125" />
            </Array>
          </mxGeometry>
        </mxCell>
        <mxCell id="o5czfHZH7X3JScQm45Zd-74" value="&lt;p style=&quot;margin:0px;margin-top:4px;text-align:center;text-decoration:underline;&quot;&gt;&lt;b&gt;l3: Livro&lt;/b&gt;&lt;/p&gt;&lt;hr&gt;&lt;p style=&quot;margin:0px;margin-left:8px;&quot;&gt;id = &quot;5e061b72-1245-32fd-ff12-3444a3d72011&quot;&lt;br&gt;nome = &quot;Cálculo 2&quot;&lt;/p&gt;&lt;p style=&quot;margin:0px;margin-left:8px;&quot;&gt;multaAtrasoDiario = 8.00&lt;br&gt;&lt;/p&gt;" style="verticalAlign=top;align=left;overflow=fill;fontSize=12;fontFamily=Helvetica;html=1;whiteSpace=wrap;" vertex="1" parent="1">
          <mxGeometry x="570" y="1140" width="280" height="80" as="geometry" />
        </mxCell>
        <mxCell id="o5czfHZH7X3JScQm45Zd-75" value="&lt;p style=&quot;margin:0px;margin-top:4px;text-align:center;text-decoration:underline;&quot;&gt;&lt;b&gt;g3: Gênero&lt;/b&gt;&lt;/p&gt;&lt;hr&gt;&lt;p style=&quot;margin:0px;margin-left:8px;&quot;&gt;id = &quot;0f60aa75-9f2f-459c-8f12-b6ecb807000a&quot;&lt;/p&gt;&lt;p style=&quot;margin:0px;margin-left:8px;&quot;&gt;nome = &quot;Ficção Cientifica&quot;&lt;br&gt;&lt;/p&gt;" style="verticalAlign=top;align=left;overflow=fill;fontSize=12;fontFamily=Helvetica;html=1;whiteSpace=wrap;" vertex="1" parent="1">
          <mxGeometry x="1083" y="1000" width="350" height="70" as="geometry" />
        </mxCell>
        <mxCell id="o5czfHZH7X3JScQm45Zd-76" value="&lt;p style=&quot;margin:0px;margin-top:4px;text-align:center;text-decoration:underline;&quot;&gt;&lt;b&gt;g2: Gênero&lt;/b&gt;&lt;/p&gt;&lt;hr&gt;&lt;p style=&quot;margin:0px;margin-left:8px;&quot;&gt;id = &quot;0f60aa75-9f2f-459c-8f12-b6ecb807000a&quot;&lt;/p&gt;&lt;p style=&quot;margin:0px;margin-left:8px;&quot;&gt;nome = &quot;Aventura&quot;&lt;br&gt;&lt;/p&gt;" style="verticalAlign=top;align=left;overflow=fill;fontSize=12;fontFamily=Helvetica;html=1;whiteSpace=wrap;" vertex="1" parent="1">
          <mxGeometry x="1083" y="900" width="350" height="70" as="geometry" />
        </mxCell>
        <mxCell id="o5czfHZH7X3JScQm45Zd-77" value="&lt;p style=&quot;margin:0px;margin-top:4px;text-align:center;text-decoration:underline;&quot;&gt;&lt;b&gt;g1: Gênero&lt;/b&gt;&lt;/p&gt;&lt;hr&gt;&lt;p style=&quot;margin:0px;margin-left:8px;&quot;&gt;id = &quot;0f60aa75-9f2f-459c-8f12-b6ecb807000a&quot;&lt;/p&gt;&lt;p style=&quot;margin:0px;margin-left:8px;&quot;&gt;nome = &quot;Fantasia&quot;&lt;br&gt;&lt;/p&gt;" style="verticalAlign=top;align=left;overflow=fill;fontSize=12;fontFamily=Helvetica;html=1;whiteSpace=wrap;" vertex="1" parent="1">
          <mxGeometry x="1083" y="790" width="350" height="70" as="geometry" />
        </mxCell>
        <mxCell id="o5czfHZH7X3JScQm45Zd-78" value="&lt;p style=&quot;margin:0px;margin-top:4px;text-align:center;text-decoration:underline;&quot;&gt;&lt;b&gt;g4: Gênero&lt;/b&gt;&lt;/p&gt;&lt;hr&gt;&lt;p style=&quot;margin:0px;margin-left:8px;&quot;&gt;id = &quot;0f60aa75-9f2f-459c-8f12-b6ecb807000a&quot;&lt;/p&gt;&lt;p style=&quot;margin:0px;margin-left:8px;&quot;&gt;nome = &quot;Ciências&quot;&lt;br&gt;&lt;/p&gt;" style="verticalAlign=top;align=left;overflow=fill;fontSize=12;fontFamily=Helvetica;html=1;whiteSpace=wrap;" vertex="1" parent="1">
          <mxGeometry x="1083" y="1090" width="350" height="70" as="geometry" />
        </mxCell>
        <mxCell id="o5czfHZH7X3JScQm45Zd-79" value="&lt;p style=&quot;margin:0px;margin-top:4px;text-align:center;text-decoration:underline;&quot;&gt;&lt;b&gt;g1: Gênero&lt;/b&gt;&lt;/p&gt;&lt;hr&gt;&lt;p style=&quot;margin:0px;margin-left:8px;&quot;&gt;id = &quot;0f60aa75-9f2f-459c-8f12-b6ecb807000a&quot;&lt;/p&gt;&lt;p style=&quot;margin:0px;margin-left:8px;&quot;&gt;nome = &quot;Matemática&quot;&lt;br&gt;&lt;/p&gt;" style="verticalAlign=top;align=left;overflow=fill;fontSize=12;fontFamily=Helvetica;html=1;whiteSpace=wrap;" vertex="1" parent="1">
          <mxGeometry x="1083" y="1200" width="350" height="70" as="geometry" />
        </mxCell>
        <mxCell id="o5czfHZH7X3JScQm45Zd-90" style="edgeStyle=orthogonalEdgeStyle;rounded=0;orthogonalLoop=1;jettySize=auto;html=1;endArrow=none;endFill=0;" edge="1" parent="1" source="o5czfHZH7X3JScQm45Zd-87" target="o5czfHZH7X3JScQm45Zd-72">
          <mxGeometry relative="1" as="geometry" />
        </mxCell>
        <mxCell id="o5czfHZH7X3JScQm45Zd-91" style="edgeStyle=orthogonalEdgeStyle;rounded=0;orthogonalLoop=1;jettySize=auto;html=1;entryX=1;entryY=0.25;entryDx=0;entryDy=0;endArrow=none;endFill=0;" edge="1" parent="1" source="o5czfHZH7X3JScQm45Zd-87" target="o5czfHZH7X3JScQm45Zd-73">
          <mxGeometry relative="1" as="geometry">
            <Array as="points">
              <mxPoint x="880" y="705" />
              <mxPoint x="880" y="967" />
            </Array>
          </mxGeometry>
        </mxCell>
        <mxCell id="o5czfHZH7X3JScQm45Zd-87" value="&lt;p style=&quot;margin:0px;margin-top:4px;text-align:center;text-decoration:underline;&quot;&gt;&lt;b&gt;e1: Editora&lt;/b&gt;&lt;/p&gt;&lt;hr&gt;&lt;p style=&quot;margin:0px;margin-left:8px;&quot;&gt;id = &quot;a3018272-db3e-471c-b3c8-ed9d3b12f52f&quot;&lt;br&gt;nome = &quot;Editora 1&quot;&lt;/p&gt;" style="verticalAlign=top;align=left;overflow=fill;fontSize=12;fontFamily=Helvetica;html=1;whiteSpace=wrap;" vertex="1" parent="1">
          <mxGeometry x="565" y="660" width="290" height="90" as="geometry" />
        </mxCell>
        <mxCell id="o5czfHZH7X3JScQm45Zd-92" value="&lt;p style=&quot;margin:0px;margin-top:4px;text-align:center;text-decoration:underline;&quot;&gt;&lt;b&gt;c1: Colecao&lt;/b&gt;&lt;/p&gt;&lt;hr&gt;&lt;p style=&quot;margin:0px;margin-left:8px;&quot;&gt;id = &quot;a3018272-db3e-471c-b3c8-ed9d3b12f52f&quot;&lt;br&gt;nome = &quot;Tolkien Collection&quot;&lt;/p&gt;" style="verticalAlign=top;align=left;overflow=fill;fontSize=12;fontFamily=Helvetica;html=1;whiteSpace=wrap;" vertex="1" parent="1">
          <mxGeometry x="1083" y="660" width="290" height="90" as="geometry" />
        </mxCell>
        <mxCell id="o5czfHZH7X3JScQm45Zd-95" style="edgeStyle=orthogonalEdgeStyle;rounded=0;orthogonalLoop=1;jettySize=auto;html=1;endArrow=none;endFill=0;" edge="1" parent="1" source="o5czfHZH7X3JScQm45Zd-94" target="o5czfHZH7X3JScQm45Zd-74">
          <mxGeometry relative="1" as="geometry" />
        </mxCell>
        <mxCell id="o5czfHZH7X3JScQm45Zd-94" value="&lt;p style=&quot;margin:0px;margin-top:4px;text-align:center;text-decoration:underline;&quot;&gt;&lt;b&gt;e2: Editora&lt;/b&gt;&lt;/p&gt;&lt;hr&gt;&lt;p style=&quot;margin:0px;margin-left:8px;&quot;&gt;id = &quot;a3018272-db3e-4ea1-b3c8-ed9d3b12f52f&quot;&lt;br&gt;nome = &quot;Editora 2&quot;&lt;/p&gt;" style="verticalAlign=top;align=left;overflow=fill;fontSize=12;fontFamily=Helvetica;html=1;whiteSpace=wrap;" vertex="1" parent="1">
          <mxGeometry x="565" y="1310" width="290" height="90" as="geometry" />
        </mxCell>
        <mxCell id="o5czfHZH7X3JScQm45Zd-110" style="edgeStyle=orthogonalEdgeStyle;rounded=0;orthogonalLoop=1;jettySize=auto;html=1;endArrow=none;endFill=0;" edge="1" parent="1" source="o5czfHZH7X3JScQm45Zd-96" target="o5czfHZH7X3JScQm45Zd-72">
          <mxGeometry relative="1" as="geometry" />
        </mxCell>
        <mxCell id="o5czfHZH7X3JScQm45Zd-96" value="&lt;p style=&quot;margin:0px;margin-top:4px;text-align:center;text-decoration:underline;&quot;&gt;&lt;b&gt;emprestimo1: Emprestimo&lt;/b&gt;&lt;/p&gt;&lt;hr&gt;&lt;p style=&quot;margin:0px;margin-left:8px;&quot;&gt;data = 01/01/2023&lt;br&gt;&lt;br&gt;&lt;/p&gt;" style="verticalAlign=top;align=left;overflow=fill;fontSize=12;fontFamily=Helvetica;html=1;whiteSpace=wrap;" vertex="1" parent="1">
          <mxGeometry x="230" y="845" width="170" height="50" as="geometry" />
        </mxCell>
        <mxCell id="o5czfHZH7X3JScQm45Zd-107" style="edgeStyle=orthogonalEdgeStyle;rounded=0;orthogonalLoop=1;jettySize=auto;html=1;endArrow=none;endFill=0;" edge="1" parent="1" source="o5czfHZH7X3JScQm45Zd-99" target="o5czfHZH7X3JScQm45Zd-74">
          <mxGeometry relative="1" as="geometry" />
        </mxCell>
        <mxCell id="o5czfHZH7X3JScQm45Zd-99" value="&lt;p style=&quot;margin:0px;margin-top:4px;text-align:center;text-decoration:underline;&quot;&gt;&lt;b&gt;emprestimo3: Emprestimo&lt;/b&gt;&lt;/p&gt;&lt;hr&gt;&lt;p style=&quot;margin:0px;margin-left:8px;&quot;&gt;data = 05/02/2023&lt;br&gt;&lt;br&gt;&lt;/p&gt;" style="verticalAlign=top;align=left;overflow=fill;fontSize=12;fontFamily=Helvetica;html=1;whiteSpace=wrap;" vertex="1" parent="1">
          <mxGeometry x="230" y="1155" width="170" height="50" as="geometry" />
        </mxCell>
        <mxCell id="o5czfHZH7X3JScQm45Zd-109" style="edgeStyle=orthogonalEdgeStyle;rounded=0;orthogonalLoop=1;jettySize=auto;html=1;endArrow=none;endFill=0;" edge="1" parent="1" source="o5czfHZH7X3JScQm45Zd-100" target="o5czfHZH7X3JScQm45Zd-73">
          <mxGeometry relative="1" as="geometry" />
        </mxCell>
        <mxCell id="o5czfHZH7X3JScQm45Zd-100" value="&lt;p style=&quot;margin:0px;margin-top:4px;text-align:center;text-decoration:underline;&quot;&gt;&lt;b&gt;emprestimo2: Emprestimo&lt;/b&gt;&lt;/p&gt;&lt;hr&gt;&lt;p style=&quot;margin:0px;margin-left:8px;&quot;&gt;data = 01/01/2023&lt;br&gt;&lt;br&gt;&lt;/p&gt;" style="verticalAlign=top;align=left;overflow=fill;fontSize=12;fontFamily=Helvetica;html=1;whiteSpace=wrap;" vertex="1" parent="1">
          <mxGeometry x="230" y="965" width="170" height="50" as="geometry" />
        </mxCell>
        <mxCell id="o5czfHZH7X3JScQm45Zd-115" style="edgeStyle=orthogonalEdgeStyle;rounded=0;orthogonalLoop=1;jettySize=auto;html=1;endArrow=none;endFill=0;" edge="1" parent="1" source="o5czfHZH7X3JScQm45Zd-111" target="o5czfHZH7X3JScQm45Zd-10">
          <mxGeometry relative="1" as="geometry" />
        </mxCell>
        <mxCell id="o5czfHZH7X3JScQm45Zd-122" value="1" style="edgeLabel;html=1;align=center;verticalAlign=middle;resizable=0;points=[];" vertex="1" connectable="0" parent="o5czfHZH7X3JScQm45Zd-115">
          <mxGeometry x="0.8758" y="-1" relative="1" as="geometry">
            <mxPoint x="2" y="-11" as="offset" />
          </mxGeometry>
        </mxCell>
        <mxCell id="o5czfHZH7X3JScQm45Zd-123" value="- livro" style="edgeLabel;html=1;align=center;verticalAlign=middle;resizable=0;points=[];" vertex="1" connectable="0" parent="o5czfHZH7X3JScQm45Zd-115">
          <mxGeometry x="0.8211" relative="1" as="geometry">
            <mxPoint y="10" as="offset" />
          </mxGeometry>
        </mxCell>
        <mxCell id="o5czfHZH7X3JScQm45Zd-124" value="*" style="edgeLabel;html=1;align=center;verticalAlign=middle;resizable=0;points=[];" vertex="1" connectable="0" parent="o5czfHZH7X3JScQm45Zd-115">
          <mxGeometry x="-0.9516" relative="1" as="geometry">
            <mxPoint y="-10" as="offset" />
          </mxGeometry>
        </mxCell>
        <mxCell id="o5czfHZH7X3JScQm45Zd-125" value="- emprestimos" style="edgeLabel;html=1;align=center;verticalAlign=middle;resizable=0;points=[];" vertex="1" connectable="0" parent="o5czfHZH7X3JScQm45Zd-115">
          <mxGeometry x="-0.9389" y="-1" relative="1" as="geometry">
            <mxPoint x="30" y="7" as="offset" />
          </mxGeometry>
        </mxCell>
        <mxCell id="o5czfHZH7X3JScQm45Zd-111" value="Emprestimo" style="swimlane;fontStyle=0;childLayout=stackLayout;horizontal=1;startSize=26;fillColor=none;horizontalStack=0;resizeParent=1;resizeParentMax=0;resizeLast=0;collapsible=1;marginBottom=0;whiteSpace=wrap;html=1;" vertex="1" parent="1">
          <mxGeometry x="250" y="241" width="140" height="78" as="geometry" />
        </mxCell>
        <mxCell id="o5czfHZH7X3JScQm45Zd-112" value="- &amp;lt;&amp;lt;oid&amp;gt;&amp;gt; id: UUID" style="text;strokeColor=none;fillColor=none;align=left;verticalAlign=top;spacingLeft=4;spacingRight=4;overflow=hidden;rotatable=0;points=[[0,0.5],[1,0.5]];portConstraint=eastwest;whiteSpace=wrap;html=1;" vertex="1" parent="o5czfHZH7X3JScQm45Zd-111">
          <mxGeometry y="26" width="140" height="26" as="geometry" />
        </mxCell>
        <mxCell id="o5czfHZH7X3JScQm45Zd-114" value="- data: Date" style="text;strokeColor=none;fillColor=none;align=left;verticalAlign=top;spacingLeft=4;spacingRight=4;overflow=hidden;rotatable=0;points=[[0,0.5],[1,0.5]];portConstraint=eastwest;whiteSpace=wrap;html=1;" vertex="1" parent="o5czfHZH7X3JScQm45Zd-111">
          <mxGeometry y="52" width="140" height="26" as="geometry" />
        </mxCell>
      </root>
    </mxGraphModel>
  </diagram>
</mxfile>
